<svg xmlns="http://www.w3.org/2000/svg" viewBox="0 0 809.23 233.32"><defs><style>.cls-1,.cls-2,.cls-7{fill:#4e4d4d;}.cls-2{font-size:101.03px;font-family:OpenSans-Light, Open Sans;letter-spacing:-0.04em;}.cls-3{letter-spacing:-0.08em;}.cls-4{letter-spacing:-0.02em;}.cls-5{letter-spacing:-0.04em;}.cls-6{font-size:42.73px;fill:#fff;font-family:OpenSans, Open Sans;letter-spacing:-0.04em;}.cls-7{font-size:38.43px;font-family:OpenSans-Extrabold, Open Sans;font-weight:700;letter-spacing:-0.02em;}</style></defs><title>Asset 2</title><g id="Layer_2" data-name="Layer 2"><g id="Layer_1-2" data-name="Layer 1"><path class="cls-1" d="M2.31,86.39V13.75H16.41V75.17H51.82V86.39Z"/><path class="cls-1" d="M152.74,76.15l7.83-9.8a36.38,36.38,0,0,0,25.42,10c11.56,0,16.14-5.12,16.14-9.91,0-6.54-8.55-8.5-18.31-10.78-13.13-2.94-28.55-6.43-28.55-21.78,0-12,11.68-21.24,29.27-21.24,12.53,0,22.65,3.59,30.11,10.13l-8.07,9.47C200.32,26.6,191.77,24,183.34,24s-13.61,3.59-13.61,9c0,5.66,8.19,7.51,17.71,9.69,13.25,3,29,6.76,29,22.54,0,12.09-9.4,22.44-31.08,22.44C170.57,87.7,159.85,83,152.74,76.15Z"/><path class="cls-1" d="M249.82,86.39V25H225.49V13.75h62.75V25H263.91V86.39Z"/><path class="cls-1" d="M100.84,12.55c-24.09,0-41.07,15.9-41.07,37.57,0,0,0,0,0,.06H74.22s0,0,0-.06c0-15,10.36-26.25,26.62-26.25s26.62,11.22,26.62,26.25S117,76.37,100.84,76.37V87.7c24.09,0,41.07-15.9,41.07-37.57S124.93,12.55,100.84,12.55Z"/><text class="cls-2" transform="translate(305.86 86.57) scale(1.11 1)">IN<tspan class="cls-3" x="89.63" y="0"> </tspan><tspan class="cls-4" x="107.79" y="0">A</tspan><tspan class="cls-5" x="166.19" y="0">RT</tspan></text><text class="cls-6" transform="translate(3.12 221.74)">WHICH EVENTS WOULD YOU LIKE TO FIND?</text><text class="cls-7" transform="translate(0 156.2)">WHICH EVENTS WOULD YOU LIKE TO VIEW?</text></g></g></svg>