<svg xmlns="http://www.w3.org/2000/svg" viewBox="0 0 805.1 154.91"><defs><style>.cls-1,.cls-2{fill:#4e4d4d;}.cls-2{font-size:38.43px;font-family:OpenSans-Extrabold, Open Sans;font-weight:700;letter-spacing:-0.02em;}</style></defs><title>Asset 2_1</title><g id="Layer_2" data-name="Layer 2"><g id="Layer_1-2" data-name="Layer 1"><path class="cls-1" d="M2.31,73.84V1.2H16.41V62.62H51.82V73.84Z"/><path class="cls-1" d="M152.74,63.6l7.83-9.8a36.38,36.38,0,0,0,25.42,10c11.56,0,16.14-5.12,16.14-9.91,0-6.54-8.55-8.5-18.31-10.78-13.13-2.94-28.55-6.43-28.55-21.78,0-12,11.68-21.24,29.27-21.24,12.53,0,22.65,3.59,30.11,10.13l-8.07,9.47c-6.26-5.66-14.82-8.28-23.25-8.28s-13.61,3.59-13.61,9c0,5.66,8.19,7.51,17.71,9.69,13.25,3,29,6.76,29,22.54,0,12.09-9.4,22.44-31.08,22.44C170.57,75.15,159.85,70.46,152.74,63.6Z"/><path class="cls-1" d="M249.82,73.84V12.42H225.49V1.2h62.75V12.42H263.91V73.84Z"/><path class="cls-1" d="M100.84,0C76.75,0,59.77,15.9,59.77,37.57c0,0,0,0,0,.06H74.22s0,0,0-.06c0-15,10.36-26.25,26.62-26.25s26.62,11.22,26.62,26.25S117,63.82,100.84,63.82V75.15c24.09,0,41.07-15.9,41.07-37.57S124.93,0,100.84,0Z"/><path class="cls-1" d="M317.24,74V1.9h5.61V74Z"/><path class="cls-1" d="M399.18,74h-5.66l-47.6-64h-.44q.66,11.45.66,17.27V74h-5.39V1.9h5.61l47.54,63.93h.33Q393.74,57,393.74,49V1.9h5.44Z"/><path class="cls-1" d="M476,48.57H443.38L432.16,74H426L458.27,1.61h3.57L493.5,74h-6.32ZM445.41,44h28.74L463.22,18q-1.37-3.06-3.3-8.48a73.69,73.69,0,0,1-3.24,8.58Z"/><path class="cls-1" d="M508,42.6V74H502.4V1.9h19.13q14.95,0,22.09,5t7.14,14.92A18.18,18.18,0,0,1,546.51,34q-4.26,5-12.94,7.15L555.38,74h-6.71L528,42.6Zm0-4.34h15.33q10.17,0,15.77-4.07t5.61-12q0-8.24-5.5-12T521.31,6.44H508Z"/><path class="cls-1" d="M585.39,74h-5.66V6.64H553.62V1.9H611.5V6.64H585.39Z"/><text class="cls-2" transform="translate(0 143.65)">WHICH EVENTS WOULD YOU LIKE TO VIEW?</text></g></g></svg>