<svg xmlns="http://www.w3.org/2000/svg" viewBox="0 0 804.52 144.12"><defs><style>.cls-1{fill:#4e4d4d;}</style></defs><title>asset2</title><g id="Layer_2" data-name="Layer 2"><g id="Layer_1-2" data-name="Layer 1"><path class="cls-1" d="M1.73,73.84V1.2H15.83V62.62H51.24V73.84Z"/><path class="cls-1" d="M152.16,63.6,160,53.8a36.38,36.38,0,0,0,25.42,10c11.56,0,16.14-5.12,16.14-9.91,0-6.54-8.55-8.5-18.31-10.78-13.13-2.94-28.55-6.43-28.55-21.78,0-12,11.68-21.24,29.27-21.24,12.53,0,22.65,3.59,30.11,10.13L206,19.71c-6.26-5.66-14.82-8.28-23.25-8.28s-13.61,3.59-13.61,9c0,5.66,8.19,7.51,17.71,9.69,13.25,3,29,6.76,29,22.54,0,12.09-9.4,22.44-31.08,22.44C170,75.15,159.27,70.46,152.16,63.6Z"/><path class="cls-1" d="M249.24,73.84V12.42H224.91V1.2h62.75V12.42H263.33V73.84Z"/><path class="cls-1" d="M100.26,0C76.17,0,59.18,15.9,59.18,37.57c0,0,0,0,0,.06H73.64s0,0,0-.06c0-15,10.36-26.25,26.62-26.25s26.62,11.22,26.62,26.25S116.4,63.82,100.26,63.82V75.15c24.09,0,41.07-15.9,41.07-37.57S124.35,0,100.26,0Z"/><path class="cls-1" d="M316.66,74V1.9h5.61V74Z"/><path class="cls-1" d="M398.6,74h-5.66l-47.6-64h-.44q.66,11.45.66,17.27V74h-5.39V1.9h5.61l47.54,63.93h.33Q393.16,57,393.16,49V1.9h5.44Z"/><path class="cls-1" d="M475.44,48.57H442.79L431.58,74h-6.21L457.69,1.61h3.57L492.92,74H486.6ZM444.83,44h28.74L462.64,18q-1.37-3.06-3.3-8.48a73.69,73.69,0,0,1-3.24,8.58Z"/><path class="cls-1" d="M507.43,42.6V74h-5.61V1.9h19.13q14.95,0,22.09,5t7.14,14.92A18.18,18.18,0,0,1,545.93,34q-4.26,5-12.94,7.15L554.8,74H548.1L527.38,42.6Zm0-4.34h15.33q10.17,0,15.77-4.07t5.61-12q0-8.24-5.5-12T520.73,6.44h-13.3Z"/><path class="cls-1" d="M584.81,74h-5.66V6.64H553V1.9h57.87V6.64H584.81Z"/><path class="cls-1" d="M32,143.65H23.25l-2.63-12q-.19-.75-.59-3T19.44,125q-.15,1.22-.49,3t-.67,3.33q-.33,1.52-2.73,12.31H6.79L0,116.22H7.15l3,13.76q1,4.56,1.39,7.26.24-1.91.87-5.2t1.17-5.44L16,116.22h6.87l2.35,10.38q.6,2.5,1.22,5.76t.83,4.88q.24-2.08,1.33-7.23l3-13.79h7.15Z"/><path class="cls-1" d="M65,143.65H57.54V132.47H48.92v11.19H41.47V116.22h7.45v10.17h8.61V116.22H65Z"/><path class="cls-1" d="M70.07,143.65V116.22h7.45v27.44Z"/><path class="cls-1" d="M94.83,121.9a4.73,4.73,0,0,0-4.13,2.17,10.46,10.46,0,0,0-1.48,6q0,7.92,6,7.92a12.35,12.35,0,0,0,3.53-.51,35.34,35.34,0,0,0,3.43-1.22v6.27A19,19,0,0,1,94.43,144q-6.21,0-9.52-3.6T81.6,130a16.62,16.62,0,0,1,1.6-7.49,11.48,11.48,0,0,1,4.62-5,13.94,13.94,0,0,1,7.08-1.74,19.52,19.52,0,0,1,8.5,1.93l-2.27,5.84a25.49,25.49,0,0,0-3-1.2A10.63,10.63,0,0,0,94.83,121.9Z"/><path class="cls-1" d="M130.22,143.65h-7.45V132.47h-8.61v11.19H106.7V116.22h7.45v10.17h8.61V116.22h7.45Z"/><path class="cls-1" d="M160.73,143.65H144.44V116.22h16.29v5.95h-8.88v4.32h8.22v5.95h-8.22v5.18h8.88Z"/><path class="cls-1" d="M180.1,116.22h8.29l-9,27.44h-8.73l-9-27.44h8.33l3.73,13.91a42.44,42.44,0,0,1,1.28,6.46q.13-1.31.53-3.28t.69-3.1Z"/><path class="cls-1" d="M206.8,143.65H190.51V116.22H206.8v5.95h-8.88v4.32h8.22v5.95h-8.22v5.18h8.88Z"/><path class="cls-1" d="M236.88,143.65h-9.72l-10-19.33H217q.36,4.56.36,7v12.37h-6.57V116.22h9.68l10,19.07h.11q-.26-4.15-.26-6.66v-12.4h6.61Z"/><path class="cls-1" d="M254.07,143.65h-7.41V122.28H240v-6.06h20.79v6.06h-6.68Z"/><path class="cls-1" d="M281.77,135.32a8.09,8.09,0,0,1-1.29,4.53,8.48,8.48,0,0,1-3.73,3.08A13.85,13.85,0,0,1,271,144a23.16,23.16,0,0,1-4.6-.38,17.08,17.08,0,0,1-3.87-1.34V135.7a22.05,22.05,0,0,0,4.41,1.7,16.43,16.43,0,0,0,4.2.61,4.08,4.08,0,0,0,2.42-.57,1.76,1.76,0,0,0,.77-1.47,1.62,1.62,0,0,0-.31-1,3.62,3.62,0,0,0-1-.85q-.68-.43-3.65-1.76a17.5,17.5,0,0,1-4-2.36,7.26,7.26,0,0,1-2-2.63,8.72,8.72,0,0,1-.65-3.51,7,7,0,0,1,2.76-5.91,12.16,12.16,0,0,1,7.58-2.12,21.28,21.28,0,0,1,8.69,2l-2.27,5.72a16.46,16.46,0,0,0-6.64-1.76,3.46,3.46,0,0,0-2.1.51,1.53,1.53,0,0,0-.66,1.26,1.81,1.81,0,0,0,.83,1.44,31.77,31.77,0,0,0,4.53,2.33,12.54,12.54,0,0,1,4.93,3.42A7.44,7.44,0,0,1,281.77,135.32Z"/><path class="cls-1" d="M323.94,143.65h-8.76l-2.63-12q-.19-.75-.59-3t-.59-3.73q-.15,1.22-.49,3t-.67,3.33q-.33,1.52-2.73,12.31h-8.76l-6.79-27.44h7.15l3,13.76q1,4.56,1.39,7.26.24-1.91.87-5.2t1.17-5.44l2.42-10.38h6.87l2.35,10.38q.6,2.5,1.22,5.76t.83,4.88q.24-2.08,1.33-7.23l3-13.79h7.15Z"/><path class="cls-1" d="M359.07,129.9q0,6.92-3.4,10.53t-9.95,3.6q-6.46,0-9.9-3.62t-3.44-10.55q0-6.85,3.42-10.46t10-3.61q6.55,0,9.93,3.58T359.07,129.9Zm-18.88,0q0,8,5.54,8a4.76,4.76,0,0,0,4.18-1.93q1.36-1.93,1.36-6t-1.38-6.07a4.71,4.71,0,0,0-4.12-2Q340.19,121.87,340.19,129.9Z"/><path class="cls-1" d="M386.51,116.22v16.51q0,5.39-3,8.34t-8.79,3q-5.61,0-8.62-2.87t-3-8.26V116.22h7.45v16.1a6.59,6.59,0,0,0,1.09,4.22,4.69,4.69,0,0,0,6.5,0,7,7,0,0,0,1-4.27V116.22Z"/><path class="cls-1" d="M391.42,143.65V116.22h7.41v21.45H409.4v6Z"/><path class="cls-1" d="M436.24,129.35q0,6.87-3.78,10.58t-10.63,3.72h-8.88V116.22h9.5q6.61,0,10.2,3.38T436.24,129.35Zm-7.69.26q0-3.77-1.49-5.59a5.52,5.52,0,0,0-4.53-1.82h-2.16v15.37H422a6,6,0,0,0,5-2Q428.54,133.65,428.54,129.62Z"/><path class="cls-1" d="M459.24,126.39,464,116.22h8l-9,16.72v10.72h-7.47V133.16l-9-16.95h8.07Z"/><path class="cls-1" d="M499.8,129.9q0,6.92-3.4,10.53t-9.95,3.6q-6.46,0-9.9-3.62t-3.44-10.55q0-6.85,3.42-10.46t10-3.61q6.55,0,9.93,3.58T499.8,129.9Zm-18.88,0q0,8,5.54,8a4.76,4.76,0,0,0,4.18-1.93q1.36-1.93,1.36-6t-1.38-6.07a4.71,4.71,0,0,0-4.12-2Q480.92,121.87,480.92,129.9Z"/><path class="cls-1" d="M527.23,116.22v16.51q0,5.39-3,8.34t-8.79,3q-5.61,0-8.62-2.87t-3-8.26V116.22h7.45v16.1a6.59,6.59,0,0,0,1.09,4.22,4.69,4.69,0,0,0,6.5,0,7,7,0,0,0,1-4.27V116.22Z"/><path class="cls-1" d="M541.29,143.65V116.22h7.41v21.45h10.57v6Z"/><path class="cls-1" d="M562.81,143.65V116.22h7.45v27.44Z"/><path class="cls-1" d="M598.79,143.65h-8.37L585,133.16l-2.2,1.31v9.18h-7.45V116.22h7.45v11.92a32.54,32.54,0,0,1,2.27-3.51l5.76-8.41h8.11l-8.65,12.29Z"/><path class="cls-1" d="M617.19,143.65H600.9V116.22h16.29v5.95h-8.88v4.32h8.22v5.95h-8.22v5.18h8.88Z"/><path class="cls-1" d="M642.4,143.65H635V122.28h-6.7v-6.06h20.79v6.06H642.4Z"/><path class="cls-1" d="M677.83,129.9q0,6.92-3.4,10.53t-9.95,3.6q-6.46,0-9.9-3.62t-3.44-10.55q0-6.85,3.42-10.46t10-3.61q6.55,0,9.93,3.58T677.83,129.9Zm-18.88,0q0,8,5.54,8a4.76,4.76,0,0,0,4.18-1.93q1.36-1.93,1.36-6t-1.38-6.07a4.71,4.71,0,0,0-4.12-2Q658.95,121.87,658.95,129.9Z"/><path class="cls-1" d="M706.48,116.22h8.29l-9,27.44h-8.73l-9-27.44h8.33l3.73,13.91a42.44,42.44,0,0,1,1.28,6.46q.13-1.31.53-3.28t.69-3.1Z"/><path class="cls-1" d="M716.9,143.65V116.22h7.45v27.44Z"/><path class="cls-1" d="M745.72,143.65H729.43V116.22h16.29v5.95h-8.88v4.32h8.22v5.95h-8.22v5.18h8.88Z"/><path class="cls-1" d="M779.31,143.65h-8.76l-2.63-12q-.19-.75-.59-3t-.59-3.73q-.15,1.22-.49,3t-.67,3.33q-.33,1.52-2.73,12.31h-8.76l-6.79-27.44h7.15l3,13.76q1,4.56,1.39,7.26.24-1.91.87-5.2t1.17-5.44l2.42-10.38h6.87l2.35,10.38q.6,2.5,1.22,5.76t.83,4.88q.24-2.08,1.33-7.23l3-13.79h7.15Z"/><path class="cls-1" d="M791.34,134v-1.61a6,6,0,0,1,.75-3.11,7.87,7.87,0,0,1,2.66-2.47,10,10,0,0,0,2.19-1.73,2.62,2.62,0,0,0,.67-1.76,1.42,1.42,0,0,0-.71-1.25,3.38,3.38,0,0,0-1.86-.46,14.61,14.61,0,0,0-6.62,2l-2.61-5.1a19.43,19.43,0,0,1,9.76-2.66,10.51,10.51,0,0,1,6.57,1.84,6,6,0,0,1,2.38,5,7.15,7.15,0,0,1-1.06,3.93,10.81,10.81,0,0,1-3.39,3.14,13.13,13.13,0,0,0-2.47,1.87,2.1,2.1,0,0,0-.5,1.4v1Zm-.81,6.57a3.47,3.47,0,0,1,1-2.67,4.18,4.18,0,0,1,3-.94,4,4,0,0,1,2.88.95,3.48,3.48,0,0,1,1,2.66,3.38,3.38,0,0,1-1,2.65,4.09,4.09,0,0,1-2.84.94,4.24,4.24,0,0,1-2.91-.93A3.36,3.36,0,0,1,790.53,140.54Z"/></g></g></svg>